<svg width="7" height="7" viewBox="0 0 7 7" fill="none" xmlns="http://www.w3.org/2000/svg">
<g id="&#240;&#159;&#166;&#134; icon &#34;dollar square&#34;">
<g id="Group">
<path id="Vector" d="M2.66748 4.08252C2.66748 4.40502 2.91498 4.66502 3.22248 4.66502H3.84998C4.11748 4.66502 4.33498 4.43752 4.33498 4.15752C4.33498 3.85252 4.20248 3.74502 4.00498 3.67502L2.99748 3.32502C2.79998 3.25502 2.66748 3.14752 2.66748 2.84252C2.66748 2.56252 2.88498 2.33502 3.15248 2.33502H3.77998C4.08748 2.33502 4.33498 2.59502 4.33498 2.91752" stroke="#292D32" stroke-width="0.3" stroke-linecap="round" stroke-linejoin="round"/>
<path id="Vector_2" d="M3.5 2V5" stroke="#292D32" stroke-width="0.3" stroke-linecap="round" stroke-linejoin="round"/>
<path id="Vector_3" d="M1 2.75C1 1.5 1.5 1 2.75 1H4.25C5.5 1 6 1.5 6 2.75V4.25C6 5.5 5.5 6 4.25 6H2.75C1.5 6 1 5.5 1 4.25V3.7575" stroke="#292D32" stroke-width="0.3" stroke-linecap="round" stroke-linejoin="round"/>
</g>
</g>
</svg>
