<svg width="38" height="15" viewBox="0 0 38 15" fill="none" xmlns="http://www.w3.org/2000/svg">
<g id="Bitcoin/Chart">
<path id="Chart/Vector line" d="M1 8.31967L3.36693 10.9486C3.79791 11.4273 4.56242 11.3797 4.93061 10.8512L6.33733 8.83201C6.74426 8.24792 7.61388 8.264 7.99893 8.86275L9.85518 11.7492C9.91313 11.8393 9.98519 11.9195 10.0686 11.9868L11.5979 13.2198C11.8537 13.4261 12.1945 13.4935 12.5095 13.4002L13.1102 13.2222C13.4242 13.1292 13.6728 12.8884 13.7756 12.5774L15.9565 5.98337C16.1621 5.36158 16.9 5.10201 17.4497 5.45813L17.8674 5.72879C18.0795 5.86622 18.2317 6.07888 18.2934 6.32399L18.5679 7.41459C18.8237 8.43131 20.2726 8.41913 20.5114 7.39826L21.012 5.25748C21.1826 4.52774 22.0937 4.27674 22.614 4.81612V4.81612C22.859 5.07013 23.2251 5.16662 23.5635 5.06639L24.0933 4.90946C24.4201 4.81265 24.6752 4.55604 24.7699 4.22861L25.6001 1.35986C25.7921 0.69649 26.5827 0.422763 27.1437 0.825424L28.272 1.63519C28.6754 1.92469 29.2301 1.87438 29.5748 1.51703L29.7845 1.29969C30.2051 0.863639 30.9138 0.898836 31.2892 1.37443L32.4957 2.90314C32.5928 3.0261 32.6596 3.17014 32.6907 3.32366L33.5088 7.35191C33.5427 7.5189 33.6187 7.67446 33.7297 7.80382L34.5837 8.79989C35.0001 9.28544 35.7589 9.26072 36.1428 8.7491L37 7.60656" stroke="#5FA5F8" stroke-width="0.5" stroke-linecap="round" stroke-linejoin="round"/>
<path id="Chart/Vector" d="M3.36693 10.9486L2.74317 10.2558C2.13001 9.57478 1 10.0085 1 10.9249V13.5C1 14.0523 1.44772 14.5 2 14.5L19 14.5H36C36.5523 14.5 37 14.0523 37 13.5V9.49601C37 8.89062 36.2294 8.63368 35.8661 9.11792C35.6242 9.44024 35.1462 9.45581 34.8839 9.14992L33.7297 7.80382C33.6187 7.67446 33.5427 7.5189 33.5088 7.35191L32.6907 3.32366C32.6596 3.17014 32.5928 3.0261 32.4957 2.90314L31.2892 1.37443C30.9138 0.898836 30.2051 0.863639 29.7845 1.29969L29.5748 1.51703C29.2301 1.87438 28.6754 1.92469 28.272 1.63519L27.1437 0.825424C26.5827 0.422763 25.7921 0.69649 25.6001 1.35986L24.7699 4.22861C24.6751 4.55604 24.4201 4.81265 24.0933 4.90946L23.5635 5.06639C23.2251 5.16662 22.859 5.07013 22.614 4.81612C22.0937 4.27674 21.1826 4.52774 21.012 5.25748L20.5114 7.39826C20.2726 8.41913 18.8237 8.43131 18.5679 7.41459L18.2934 6.32399C18.2317 6.07888 18.0795 5.86622 17.8674 5.72879L17.4497 5.45813C16.9 5.10201 16.1621 5.36158 15.9565 5.98337L13.7756 12.5774C13.6728 12.8884 13.4242 13.1292 13.1102 13.2222L12.5095 13.4002C12.1945 13.4935 11.8537 13.4261 11.5979 13.2198L10.0686 11.9868C9.98519 11.9195 9.91313 11.8393 9.85518 11.7492L7.99893 8.86275C7.61388 8.264 6.74426 8.24792 6.33733 8.83201L4.93061 10.8512C4.56242 11.3797 3.79791 11.4273 3.36693 10.9486Z" fill="#5FA5F8" fill-opacity="0.1"/>
</g>
</svg>
