<svg width="38" height="13" viewBox="0 0 38 13" fill="none" xmlns="http://www.w3.org/2000/svg">
<g id="Bitcoin/Chart">
<path id="Chart/Vector line" d="M1 7.22708L3.42146 9.5634C3.84488 9.97194 4.52778 9.92841 4.8959 9.46941L6.37929 7.61982C6.78957 7.10825 7.57293 7.12341 7.96312 7.65046L9.84588 10.1937C9.90999 10.2803 9.98767 10.3559 10.0759 10.4177L11.6293 11.5057C11.8686 11.6733 12.1692 11.7279 12.4522 11.6551L13.1102 11.4858C13.4246 11.4049 13.6801 11.1765 13.7956 10.8732L15.9499 5.21491C16.1674 4.64357 16.8422 4.39942 17.3749 4.69927L17.8412 4.96168C18.0695 5.0902 18.2383 5.30321 18.3112 5.55489L18.5774 6.47392C18.859 7.4458 20.2405 7.43268 20.5036 6.45562L20.9852 4.66647C21.1786 3.94803 22.0623 3.68687 22.6152 4.18474V4.18474C22.8635 4.40833 23.2073 4.49269 23.5308 4.40944L24.0904 4.26547C24.4192 4.18086 24.6827 3.9352 24.79 3.61307L25.5926 1.20381C25.797 0.59014 26.5215 0.32908 27.0704 0.67128L28.3357 1.46013C28.714 1.69596 29.2027 1.65294 29.5339 1.35464L29.8398 1.0792C30.2489 0.710777 30.8789 0.742354 31.2491 1.14984L32.4688 2.49225C32.5832 2.61823 32.6636 2.77133 32.7024 2.93707L33.4964 6.33328C33.5383 6.51268 33.629 6.67701 33.7584 6.80813L34.6342 7.69537C35.0442 8.11071 35.7212 8.08818 36.1027 7.64652L37 6.60762" stroke="#5FA5F8" stroke-width="0.5" stroke-linecap="round" stroke-linejoin="round"/>
<g id="Chart/Vector">
<path d="M4.21019 10.3244L1 7.22708L1 12.5958L19 12.5958H37V6.60762L35.3949 8.46601L33.5605 6.60762L32.6433 2.68435L30.5796 0.412976L28.9745 1.85839L25.9936 0L24.6178 4.12976L23.0127 4.54274L21.4076 3.09732L19.5732 9.91143L18.1975 5.1622L16.3631 4.12976L13.6115 11.3568L12.0064 11.7698L9.94267 10.3244L7.19108 6.60762L4.21019 10.3244Z" fill="url(#paint0_linear_215_5)" fill-opacity="0.2"/>
<path d="M4.21019 10.3244L1 7.22708L1 12.5958L19 12.5958H37V6.60762L35.3949 8.46601L33.5605 6.60762L32.6433 2.68435L30.5796 0.412976L28.9745 1.85839L25.9936 0L24.6178 4.12976L23.0127 4.54274L21.4076 3.09732L19.5732 9.91143L18.1975 5.1622L16.3631 4.12976L13.6115 11.3568L12.0064 11.7698L9.94267 10.3244L7.19108 6.60762L4.21019 10.3244Z" fill="white" fill-opacity="0.2"/>
</g>
</g>
<defs>
<linearGradient id="paint0_linear_215_5" x1="19" y1="0" x2="19" y2="12.5958" gradientUnits="userSpaceOnUse">
<stop stop-color="#87B6F4"/>
<stop offset="1" stop-color="#85B9F9" stop-opacity="0.28"/>
</linearGradient>
</defs>
</svg>
