<svg width="36" height="13" viewBox="0 0 36 13" fill="none" xmlns="http://www.w3.org/2000/svg">
<g id="Group 36">
<g id="Vector 1">
<path d="M3.69682 3.77219H0V12.9759H36V9.87101L34.7677 10.5363L33.0954 9.87101L31.9511 8.31858L29.2225 7.54237L27.9902 5.4355L27.3741 4.65929L25.9658 5.4355L24.5575 6.43349L22.709 3.77219L21.8288 5.4355L20.2445 3.10686H18.7482L16.0196 3.77219L14.4352 5.4355L13.291 4.65929L9.68215 5.4355V3.77219L7.6577 3.10686L7.04156 1L3.69682 3.77219Z" fill="url(#paint0_linear_209_23)" fill-opacity="0.2"/>
<path d="M3.69682 3.77219H0V12.9759H36V9.87101L34.7677 10.5363L33.0954 9.87101L31.9511 8.31858L29.2225 7.54237L27.9902 5.4355L27.3741 4.65929L25.9658 5.4355L24.5575 6.43349L22.709 3.77219L21.8288 5.4355L20.2445 3.10686H18.7482L16.0196 3.77219L14.4352 5.4355L13.291 4.65929L9.68215 5.4355V3.77219L7.6577 3.10686L7.04156 1L3.69682 3.77219Z" fill="white" fill-opacity="0.2"/>
</g>
<path id="Vector 2" d="M0 3.88307H3.69682L6.86553 1.22177L7.56968 2.7742L9.50611 3.88307V5.32461L13.291 4.65929L14.4352 5.32461L16.0196 3.88307L19.9804 2.7742L21.7408 5.32461L22.533 3.88307L24.3814 6.43349L27.3741 4.65929L29.2225 7.54236L32.0391 8.42946L32.7433 9.76012L34.1516 10.5363L35.2078 9.76012H35.824" stroke="#E33939" stroke-width="0.5"/>
</g>
<defs>
<linearGradient id="paint0_linear_209_23" x1="18" y1="1" x2="18" y2="12.9759" gradientUnits="userSpaceOnUse">
<stop stop-color="#B87272"/>
<stop offset="1" stop-color="#EE2F2F" stop-opacity="0"/>
</linearGradient>
</defs>
</svg>
