<svg width="6" height="6" viewBox="0 0 6 6" fill="none" xmlns="http://www.w3.org/2000/svg">
<path d="M4.67437 6H1.15877C0.20861 6 0.158307 5.47741 0.116388 5.05542L0.00460363 3.65533C-0.0205478 3.38425 0.057701 3.11318 0.230966 2.8952C0.437767 2.64368 0.7312 2.50675 1.04699 2.50675H4.78616C5.09636 2.50675 5.38979 2.64368 5.58821 2.88122L5.63572 2.9455C5.78662 3.1523 5.8537 3.40381 5.82854 3.65812L5.71676 5.05263C5.67484 5.47741 5.62454 6 4.67437 6ZM1.04699 2.92594C0.859751 2.92594 0.680897 3.00978 0.563524 3.1551L0.543962 3.17466C0.454534 3.28924 0.407026 3.45132 0.423794 3.619L0.535578 5.01909C0.574702 5.42711 0.59147 5.58081 1.15877 5.58081H4.67437C5.24447 5.58081 5.25845 5.42711 5.29757 5.0163L5.40935 3.6162C5.42612 3.45132 5.37861 3.28644 5.26962 3.15789L5.24168 3.12435C5.11592 2.99301 4.95663 2.92594 4.78336 2.92594H1.04699Z" fill="#0F52BA"/>
<path d="M5.29179 3.05729C5.17721 3.05729 5.0822 2.96227 5.0822 2.84769V2.34747C5.0822 1.51467 4.93688 1.36935 4.10409 1.36935H3.39146C3.07567 1.36935 2.96668 1.25757 2.84652 1.09828L2.48601 0.620402C2.36305 0.458315 2.3351 0.41919 2.08359 0.41919H1.72868C0.895885 0.41919 0.750565 0.564509 0.750565 1.3973V2.83651C0.750565 2.95109 0.655549 3.04611 0.54097 3.04611C0.426392 3.04611 0.331375 2.95109 0.331375 2.83651V1.3973C0.331375 0.326968 0.658343 0 1.72868 0H2.08638C2.51675 0 2.65089 0.13973 2.82416 0.368887L3.18187 0.84397C3.25732 0.944575 3.26291 0.950164 3.39426 0.950164H4.10688C5.17721 0.950164 5.50418 1.27713 5.50418 2.34747V2.84769C5.50139 2.96227 5.40637 3.05729 5.29179 3.05729Z" fill="#0F52BA"/>
<path d="M3.6344 4.60269H2.19797C2.08339 4.60269 1.98837 4.50767 1.98837 4.39309C1.98837 4.27851 2.08339 4.1835 2.19797 4.1835H3.6344C3.74897 4.1835 3.84399 4.27851 3.84399 4.39309C3.84399 4.50767 3.75177 4.60269 3.6344 4.60269Z" fill="#0F52BA"/>
</svg>
