<svg width="5" height="6" viewBox="0 0 5 6" fill="none" xmlns="http://www.w3.org/2000/svg">
<path d="M3.27907 6H1.60465C0.373954 6 0 5.62605 0 4.39535V1.60465C0 0.373954 0.373954 0 1.60465 0H3.27907C4.50977 0 4.88372 0.373954 4.88372 1.60465V4.39535C4.88372 5.62605 4.50977 6 3.27907 6ZM1.60465 0.418605C0.605581 0.418605 0.418605 0.608372 0.418605 1.60465V4.39535C0.418605 5.39163 0.605581 5.5814 1.60465 5.5814H3.27907C4.27814 5.5814 4.46512 5.39163 4.46512 4.39535V1.60465C4.46512 0.608372 4.27814 0.418605 3.27907 0.418605H1.60465Z" fill="#6F747A"/>
<path d="M2.99999 1.39535H1.88371C1.76929 1.39535 1.67441 1.30046 1.67441 1.18604C1.67441 1.07163 1.76929 0.976742 1.88371 0.976742H2.99999C3.11441 0.976742 3.20929 1.07163 3.20929 1.18604C3.20929 1.30046 3.11441 1.39535 2.99999 1.39535Z" fill="#6F747A"/>
<path d="M2.44196 5.1935C2.08754 5.1935 1.80009 4.90605 1.80009 4.55164C1.80009 4.19722 2.08754 3.90977 2.44196 3.90977C2.79637 3.90977 3.08382 4.19722 3.08382 4.55164C3.08382 4.90605 2.79637 5.1935 2.44196 5.1935ZM2.44196 4.32559C2.31916 4.32559 2.2187 4.42605 2.2187 4.54884C2.2187 4.67164 2.31916 4.7721 2.44196 4.7721C2.56475 4.7721 2.66521 4.67164 2.66521 4.54884C2.66521 4.42605 2.56475 4.32559 2.44196 4.32559Z" fill="#6F747A"/>
</svg>
