<svg width="6" height="6" viewBox="0 0 6 6" fill="none" xmlns="http://www.w3.org/2000/svg">
<path d="M2.86074 5.72096C1.28385 5.72096 0 4.43723 0 2.86048C0 1.28373 1.28385 0 2.86074 0C4.43764 0 5.72149 1.28373 5.72149 2.86048C5.72149 4.43723 4.43764 5.72096 2.86074 5.72096ZM2.86074 0.418607C1.51271 0.418607 0.418646 1.51536 0.418646 2.86048C0.418646 4.2056 1.51271 5.30235 2.86074 5.30235C4.20878 5.30235 5.30284 4.2056 5.30284 2.86048C5.30284 1.51536 4.20878 0.418607 2.86074 0.418607Z" fill="#292D32"/>
<path d="M5.79137 5.99999C5.73834 5.99999 5.68531 5.98046 5.64345 5.9386L5.08526 5.38045C5.00432 5.29952 5.00432 5.16557 5.08526 5.08464C5.16619 5.00371 5.30016 5.00371 5.3811 5.08464L5.93929 5.64278C6.02023 5.72371 6.02023 5.85767 5.93929 5.9386C5.89743 5.98046 5.8444 5.99999 5.79137 5.99999Z" fill="#292D32"/>
</svg>
