<svg width="7" height="6" viewBox="0 0 7 6" fill="none" xmlns="http://www.w3.org/2000/svg">
<path d="M4.62085 6H1.3857C0.620211 6 0 5.377 0 4.61151V2.54135C0 2.16139 0.234674 1.68366 0.536399 1.44898L2.04223 0.275612C2.49481 -0.0763984 3.21839 -0.0931608 3.68774 0.2365L5.41427 1.44619C5.74673 1.67807 6.00655 2.17536 6.00655 2.58046V4.6143C6.00655 5.377 5.38634 6 4.62085 6ZM2.29925 0.605274L0.793423 1.77865C0.595067 1.9351 0.419061 2.2899 0.419061 2.54135V4.61151C0.419061 5.14511 0.852091 5.58094 1.3857 5.58094H4.62085C5.15446 5.58094 5.58748 5.14791 5.58748 4.6143V2.58046C5.58748 2.31225 5.39472 1.94068 5.17401 1.78982L3.44748 0.58013C3.12899 0.356631 2.60377 0.367806 2.29925 0.605274Z" fill="#6F747A"/>
<path d="M3.00335 4.8825C2.8888 4.8825 2.79382 4.78752 2.79382 4.67297V3.83485C2.79382 3.72031 2.8888 3.62532 3.00335 3.62532C3.11789 3.62532 3.21288 3.72031 3.21288 3.83485V4.67297C3.21288 4.78752 3.11789 4.8825 3.00335 4.8825Z" fill="#6F747A"/>
</svg>
