<svg width="12" height="12" viewBox="0 0 12 12" fill="none" xmlns="http://www.w3.org/2000/svg">
<path d="M8.78225 11.9889H2.93836C1.37702 11.9889 0.384453 11.0577 0.295234 9.50188L0.00526993 4.9015C-0.0393399 4.20447 0.200438 3.53533 0.679993 3.02789C1.15397 2.52045 1.82312 2.23049 2.51457 2.23049C2.69301 2.23049 2.86587 2.12454 2.94952 1.95725L3.351 1.15985C3.68 0.507436 4.50528 0 5.22462 0H6.50158C7.22091 0 8.04061 0.507436 8.36961 1.15428L8.7711 1.96841C8.85474 2.12454 9.02203 2.23049 9.20604 2.23049C9.8975 2.23049 10.5666 2.52045 11.0406 3.02789C11.5202 3.5409 11.76 4.20447 11.7153 4.9015L11.4254 9.50746C11.325 11.0855 10.3603 11.9889 8.78225 11.9889ZM5.22462 0.836433C4.81198 0.836433 4.28781 1.15985 4.09822 1.53346L3.69673 2.33644C3.46253 2.78811 3.01085 3.06692 2.51457 3.06692C2.04617 3.06692 1.61122 3.25651 1.2878 3.59666C0.969956 3.93681 0.808246 4.38291 0.841703 4.84574L1.13167 9.4517C1.19858 10.5781 1.80639 11.1524 2.93836 11.1524H8.78225C9.90865 11.1524 10.5165 10.5781 10.5889 9.4517L10.8789 4.84574C10.9068 4.38291 10.7507 3.93681 10.4328 3.59666C10.1094 3.25651 9.67445 3.06692 9.20604 3.06692C8.70976 3.06692 8.25809 2.78811 8.02388 2.34759L7.61682 1.53346C7.43281 1.16543 6.90864 0.84201 6.496 0.84201H5.22462V0.836433Z" fill="#292D32"/>
<path d="M6.69692 4.18217H5.02405C4.79543 4.18217 4.60583 3.99258 4.60583 3.76395C4.60583 3.53533 4.79543 3.34573 5.02405 3.34573H6.69692C6.92554 3.34573 7.11514 3.53533 7.11514 3.76395C7.11514 3.99258 6.92554 4.18217 6.69692 4.18217Z" fill="#292D32"/>
<path d="M5.86049 9.75839C4.62815 9.75839 3.63 8.76024 3.63 7.5279C3.63 6.29555 4.62815 5.29741 5.86049 5.29741C7.09284 5.29741 8.09098 6.29555 8.09098 7.5279C8.09098 8.76024 7.09284 9.75839 5.86049 9.75839ZM5.86049 6.13384C5.09098 6.13384 4.46644 6.75838 4.46644 7.5279C4.46644 8.29742 5.09098 8.92195 5.86049 8.92195C6.63001 8.92195 7.25455 8.29742 7.25455 7.5279C7.25455 6.75838 6.63001 6.13384 5.86049 6.13384Z" fill="#292D32"/>
</svg>
