<svg width="6" height="6" viewBox="0 0 6 6" fill="none" xmlns="http://www.w3.org/2000/svg">
<g id="&#240;&#159;&#166;&#134; icon &#34;call calling&#34;">
<g id="Group">
<path id="Vector" d="M4.994 4.266C4.994 4.338 4.978 4.412 4.944 4.484C4.91 4.556 4.866 4.624 4.808 4.688C4.71 4.796 4.602 4.874 4.48 4.924C4.36 4.974 4.23 5 4.09 5C3.886 5 3.668 4.952 3.438 4.854C3.208 4.756 2.978 4.624 2.75 4.458C2.52 4.29 2.302 4.104 2.094 3.898C1.888 3.69 1.702 3.472 1.536 3.244C1.372 3.016 1.24 2.788 1.144 2.562C1.048 2.334 1 2.116 1 1.908C1 1.772 1.024 1.642 1.072 1.522C1.12 1.4 1.196 1.288 1.302 1.188C1.43 1.062 1.57 1 1.718 1C1.774 1 1.83 1.012 1.88 1.036C1.932 1.06 1.978 1.096 2.014 1.148L2.478 1.802C2.514 1.852 2.54 1.898 2.558 1.942C2.576 1.984 2.586 2.026 2.586 2.064C2.586 2.112 2.572 2.16 2.544 2.206C2.518 2.252 2.48 2.3 2.432 2.348L2.28 2.506C2.258 2.528 2.248 2.554 2.248 2.586C2.248 2.602 2.25 2.616 2.254 2.632C2.26 2.648 2.266 2.66 2.27 2.672C2.306 2.738 2.368 2.824 2.456 2.928C2.546 3.032 2.642 3.138 2.746 3.244C2.854 3.35 2.958 3.448 3.064 3.538C3.168 3.626 3.254 3.686 3.322 3.722C3.332 3.726 3.344 3.732 3.358 3.738C3.374 3.744 3.39 3.746 3.408 3.746C3.442 3.746 3.468 3.734 3.49 3.712L3.642 3.562C3.692 3.512 3.74 3.474 3.786 3.45C3.832 3.422 3.878 3.408 3.928 3.408C3.966 3.408 4.006 3.416 4.05 3.434C4.094 3.452 4.14 3.478 4.19 3.512L4.852 3.982C4.904 4.018 4.94 4.06 4.962 4.11C4.982 4.16 4.994 4.21 4.994 4.266Z" stroke="#292D32" stroke-width="0.3" stroke-miterlimit="10"/>
<g id="Group_2">
<path id="Vector_2" opacity="0.4" d="M4.29998 2.4C4.29998 2.28 4.20598 2.096 4.06598 1.946C3.93798 1.808 3.76798 1.7 3.59998 1.7" stroke="#292D32" stroke-width="0.3" stroke-linecap="round" stroke-linejoin="round"/>
<path id="Vector_3" opacity="0.4" d="M4.99998 2.4C4.99998 1.626 4.37398 1 3.59998 1" stroke="#292D32" stroke-width="0.3" stroke-linecap="round" stroke-linejoin="round"/>
</g>
</g>
</g>
</svg>
