<svg width="4" height="4" viewBox="0 0 4 4" fill="none" xmlns="http://www.w3.org/2000/svg">
<g id="&#240;&#159;&#166;&#134; icon &#34;book&#34;">
<g id="Group">
<path id="Vector" d="M0.139535 3.25581C0.0632558 3.25581 0 3.19256 0 3.11628V1.06977C0 0.249302 0.249302 0 1.06977 0H2.37209C3.19256 0 3.44186 0.249302 3.44186 1.06977V2.93023C3.44186 2.96 3.44186 2.98791 3.44 3.01767C3.43442 3.09395 3.36558 3.15349 3.29116 3.14791C3.21488 3.14233 3.15535 3.07535 3.16093 2.99907C3.16279 2.97674 3.16279 2.95256 3.16279 2.93023V1.06977C3.16279 0.405581 3.03814 0.27907 2.37209 0.27907H1.06977C0.403721 0.27907 0.27907 0.405581 0.27907 1.06977V3.11628C0.27907 3.19256 0.215814 3.25581 0.139535 3.25581Z" fill="#292D32"/>
<path id="Vector_2" d="M2.65116 4H0.790698C0.355349 4 0 3.64465 0 3.2093V3.08837C0 2.71814 0.301395 2.4186 0.669767 2.4186H3.30233C3.3786 2.4186 3.44186 2.48186 3.44186 2.55814V3.2093C3.44186 3.64465 3.08651 4 2.65116 4ZM0.669767 2.69767C0.453954 2.69767 0.27907 2.87256 0.27907 3.08837V3.2093C0.27907 3.49209 0.507907 3.72093 0.790698 3.72093H2.65116C2.93395 3.72093 3.16279 3.49209 3.16279 3.2093V2.69767H0.669767Z" fill="#292D32"/>
<path id="Vector_3" d="M2.46513 1.2093H0.976754C0.900475 1.2093 0.837219 1.14605 0.837219 1.06977C0.837219 0.993489 0.900475 0.930233 0.976754 0.930233H2.46513C2.54141 0.930233 2.60466 0.993489 2.60466 1.06977C2.60466 1.14605 2.54141 1.2093 2.46513 1.2093Z" fill="#292D32"/>
<path id="Vector_4" d="M1.90699 1.86046H0.976754C0.900475 1.86046 0.837219 1.79721 0.837219 1.72093C0.837219 1.64465 0.900475 1.58139 0.976754 1.58139H1.90699C1.98327 1.58139 2.04652 1.64465 2.04652 1.72093C2.04652 1.79721 1.98327 1.86046 1.90699 1.86046Z" fill="#292D32"/>
</g>
</g>
</svg>
