<svg width="5" height="4" viewBox="0 0 5 4" fill="none" xmlns="http://www.w3.org/2000/svg">
<g id="&#240;&#159;&#166;&#134; icon &#34;sms notification&#34;">
<g id="Group">
<path id="Vector" d="M3.31579 4H1.21053C0.442105 4 0 3.5579 0 2.78948V1.31579C0 0.547372 0.442105 0.105267 1.21053 0.105267H2.68421C2.77053 0.105267 2.84211 0.176846 2.84211 0.263161C2.84211 0.349477 2.77053 0.421056 2.68421 0.421056H1.21053C0.608421 0.421056 0.315789 0.713688 0.315789 1.31579V2.78948C0.315789 3.39158 0.608421 3.68421 1.21053 3.68421H3.31579C3.91789 3.68421 4.21053 3.39158 4.21053 2.78948V1.73685C4.21053 1.65053 4.28211 1.57895 4.36842 1.57895C4.45474 1.57895 4.52632 1.65053 4.52632 1.73685V2.78948C4.52632 3.5579 4.08421 4 3.31579 4Z" fill="#292D32"/>
<path id="Vector_2" d="M2.26291 2.23575C2.08607 2.23575 1.90713 2.18102 1.77028 2.06944L1.11134 1.54312C1.04397 1.48838 1.03134 1.38943 1.08607 1.32206C1.14081 1.2547 1.23975 1.24206 1.30712 1.2968L1.96607 1.82312C2.12607 1.95154 2.39765 1.95154 2.55765 1.82312L2.80607 1.62522C2.87344 1.57049 2.97449 1.58101 3.02713 1.65049C3.08186 1.71786 3.07134 1.81891 3.00186 1.87154L2.75344 2.06944C2.6187 2.18102 2.43976 2.23575 2.26291 2.23575Z" fill="#292D32"/>
<path id="Vector_3" d="M3.84211 1.36842C3.46527 1.36842 3.1579 1.06105 3.1579 0.684211C3.1579 0.307368 3.46527 0 3.84211 0C4.21895 0 4.52632 0.307368 4.52632 0.684211C4.52632 1.06105 4.21895 1.36842 3.84211 1.36842ZM3.84211 0.315789C3.64 0.315789 3.47369 0.482105 3.47369 0.684211C3.47369 0.886316 3.64 1.05263 3.84211 1.05263C4.04421 1.05263 4.21053 0.886316 4.21053 0.684211C4.21053 0.482105 4.04421 0.315789 3.84211 0.315789Z" fill="#292D32"/>
</g>
</g>
</svg>
