<svg width="9" height="9" viewBox="0 0 9 9" fill="none" xmlns="http://www.w3.org/2000/svg">
<g id="&#240;&#159;&#166;&#134; icon &#34;copy success&#34;">
<g id="Group">
<path id="Vector" d="M8.0001 2.715C8.0001 1.49 7.5101 1 6.2851 1H4.8151C3.5901 1 3.1001 1.49 3.1001 2.715V3.1H4.1851C5.4101 3.1 5.9001 3.59 5.9001 4.815V5.9H6.2851C7.5101 5.9 8.0001 5.41 8.0001 4.185" stroke="#292D32" stroke-width="0.3" stroke-linecap="round" stroke-linejoin="round"/>
<path id="Vector_2" d="M1 6.28499C1 7.50999 1.49 7.99999 2.715 7.99999H4.185C5.41 7.99999 5.9 7.50999 5.9 6.28499V4.81499C5.9 3.58999 5.41 3.09999 4.185 3.09999H2.715C1.49 3.09999 1 3.58999 1 4.81499" stroke="#292D32" stroke-width="0.3" stroke-linecap="round" stroke-linejoin="round"/>
<path id="Vector_3" d="M2.4281 5.55001L3.1106 6.23251L4.47211 4.86751" stroke="#292D32" stroke-width="0.3" stroke-linecap="round" stroke-linejoin="round"/>
</g>
</g>
</svg>
