<svg width="4" height="4" viewBox="0 0 4 4" fill="none" xmlns="http://www.w3.org/2000/svg">
<g id="&#240;&#159;&#166;&#134; icon &#34;receipt&#34;">
<g id="Group">
<path id="Vector" d="M1.72093 4C1.57581 4 1.43442 3.92558 1.33767 3.79535L1.14977 3.54419C1.1107 3.49209 1.0586 3.46233 1.00279 3.4586C0.946977 3.45674 0.891163 3.48093 0.846512 3.52744L0.740465 3.43256L0.842791 3.52744C0.574884 3.81395 0.368372 3.79163 0.269767 3.75256C0.169302 3.71349 0 3.58512 0 3.17209V1.07721C0 0.251163 0.23814 0 1.01767 0H2.42419C3.20372 0 3.44186 0.251163 3.44186 1.07721V3.17209C3.44186 3.58326 3.27256 3.71163 3.17209 3.75256C3.07349 3.79163 2.86884 3.81395 2.59907 3.52744C2.55442 3.47907 2.50046 3.45302 2.44093 3.4586C2.38512 3.46233 2.33116 3.49209 2.29209 3.54419L2.10419 3.79535C2.00744 3.92558 1.86605 4 1.72093 4ZM0.991628 3.17767H1.01581C1.15349 3.18512 1.28372 3.25767 1.37116 3.37488L1.55907 3.62605C1.65023 3.74698 1.78977 3.74698 1.88093 3.62605L2.06884 3.37488C2.15814 3.25767 2.28651 3.18512 2.42605 3.17767C2.56372 3.17023 2.70139 3.22791 2.80186 3.33581C2.94326 3.48651 3.03628 3.50512 3.06791 3.49209C3.11256 3.47349 3.16093 3.36558 3.16093 3.17209V1.07721C3.16093 0.405581 3.04372 0.27907 2.42233 0.27907H1.01767C0.396279 0.27907 0.27907 0.405581 0.27907 1.07721V3.17209C0.27907 3.36744 0.327442 3.47535 0.372093 3.49209C0.403721 3.50512 0.496744 3.48651 0.638139 3.33581C0.738604 3.23349 0.863256 3.17767 0.991628 3.17767Z" fill="#292D32"/>
<path id="Vector_2" d="M2.46513 1.2093H0.976754C0.900475 1.2093 0.837219 1.14605 0.837219 1.06977C0.837219 0.993489 0.900475 0.930233 0.976754 0.930233H2.46513C2.5414 0.930233 2.60466 0.993489 2.60466 1.06977C2.60466 1.14605 2.5414 1.2093 2.46513 1.2093Z" fill="#292D32"/>
<path id="Vector_3" d="M2.27907 1.95349H1.16279C1.08651 1.95349 1.02325 1.89023 1.02325 1.81395C1.02325 1.73767 1.08651 1.67442 1.16279 1.67442H2.27907C2.35535 1.67442 2.4186 1.73767 2.4186 1.81395C2.4186 1.89023 2.35535 1.95349 2.27907 1.95349Z" fill="#292D32"/>
</g>
</g>
</svg>
