<svg width="6" height="6" viewBox="0 0 6 6" fill="none" xmlns="http://www.w3.org/2000/svg">
<g id="&#240;&#159;&#166;&#134; icon &#34;user square&#34;">
<g id="Group">
<path id="Vector" d="M4.22785 4.924C4.05185 4.976 3.84385 5 3.59985 5H2.39985C2.15585 5 1.94785 4.976 1.77185 4.924C1.81585 4.404 2.34985 3.994 2.99985 3.994C3.64985 3.994 4.18385 4.404 4.22785 4.924Z" stroke="#292D32" stroke-width="0.3" stroke-linecap="round" stroke-linejoin="round"/>
<path id="Vector_2" d="M1 3.188V3.6C1 4.356 1.228 4.77 1.772 4.924C1.816 4.404 2.35 3.994 3 3.994C3.65 3.994 4.184 4.404 4.228 4.924C4.772 4.77 5 4.356 5 3.6V2.4C5 1.4 4.6 1 3.6 1H2.4C1.4 1 1 1.4 1 2.4V3.188ZM3 3.434C2.604 3.434 2.284 3.112 2.284 2.716C2.284 2.32 2.604 2 3 2C3.396 2 3.716 2.32 3.716 2.716C3.716 3.112 3.396 3.434 3 3.434Z" stroke="#292D32" stroke-width="0.3" stroke-linecap="round" stroke-linejoin="round"/>
<path id="Vector_3" d="M3.71599 2.716C3.71599 3.112 3.39599 3.434 2.99999 3.434C2.60399 3.434 2.284 3.112 2.284 2.716C2.284 2.32 2.60399 2 2.99999 2C3.39599 2 3.71599 2.32 3.71599 2.716Z" stroke="#292D32" stroke-width="0.3" stroke-linecap="round" stroke-linejoin="round"/>
</g>
</g>
</svg>
