<svg width="4" height="4" viewBox="0 0 4 4" fill="none" xmlns="http://www.w3.org/2000/svg">
<g id="&#240;&#159;&#166;&#134; icon &#34;document text&#34;">
<g id="Group">
<path id="Vector" d="M2.55814 4H1.06977C0.390698 4 0 3.6093 0 2.93023V1.06977C0 0.390698 0.390698 0 1.06977 0H2.55814C3.23721 0 3.62791 0.390698 3.62791 1.06977V2.93023C3.62791 3.6093 3.23721 4 2.55814 4ZM1.06977 0.27907C0.537674 0.27907 0.27907 0.537674 0.27907 1.06977V2.93023C0.27907 3.46233 0.537674 3.72093 1.06977 3.72093H2.55814C3.09023 3.72093 3.34884 3.46233 3.34884 2.93023V1.06977C3.34884 0.537674 3.09023 0.27907 2.55814 0.27907H1.06977Z" fill="#292D32"/>
<path id="Vector_2" d="M3.02331 1.48837H2.65122C2.36842 1.48837 2.13959 1.25954 2.13959 0.976744V0.604651C2.13959 0.528372 2.20284 0.465117 2.27912 0.465117C2.3554 0.465117 2.41866 0.528372 2.41866 0.604651V0.976744C2.41866 1.10512 2.52284 1.2093 2.65122 1.2093H3.02331C3.09959 1.2093 3.16284 1.27256 3.16284 1.34884C3.16284 1.42512 3.09959 1.48837 3.02331 1.48837Z" fill="#292D32"/>
<path id="Vector_3" d="M1.81396 2.32558H1.06977C0.993493 2.32558 0.930237 2.26233 0.930237 2.18605C0.930237 2.10977 0.993493 2.04651 1.06977 2.04651H1.81396C1.89024 2.04651 1.95349 2.10977 1.95349 2.18605C1.95349 2.26233 1.89024 2.32558 1.81396 2.32558Z" fill="#292D32"/>
<path id="Vector_4" d="M2.55814 3.06977H1.06977C0.993493 3.06977 0.930237 3.00651 0.930237 2.93023C0.930237 2.85395 0.993493 2.7907 1.06977 2.7907H2.55814C2.63442 2.7907 2.69768 2.85395 2.69768 2.93023C2.69768 3.00651 2.63442 3.06977 2.55814 3.06977Z" fill="#292D32"/>
</g>
</g>
</svg>
